<?xml version="1.0" encoding="UTF-8" standalone="no"?>
<!-- Created with Inkscape (http://www.inkscape.org/) -->

<svg
   width="1024"
   height="1024"
   viewBox="0 0 1024 1024"
   version="1.1"
   id="svg5"
   inkscape:version="1.1.2 (0a00cf5339, 2022-02-04)"
   sodipodi:docname="logo.svg"
   inkscape:export-filename="/home/ziltx/Data/Faks/S4/POOP/13S112POOP_PZ2/bin/icons/logo.png"
   inkscape:export-xdpi="800"
   inkscape:export-ydpi="800"
   xmlns:inkscape="http://www.inkscape.org/namespaces/inkscape"
   xmlns:sodipodi="http://sodipodi.sourceforge.net/DTD/sodipodi-0.dtd"
   xmlns="http://www.w3.org/2000/svg"
   xmlns:svg="http://www.w3.org/2000/svg">
  <sodipodi:namedview
     id="namedview7"
     pagecolor="#ffffff"
     bordercolor="#000000"
     borderopacity="0.25"
     inkscape:pageshadow="2"
     inkscape:pageopacity="0.0"
     inkscape:pagecheckerboard="0"
     inkscape:document-units="px"
     showgrid="false"
     showguides="false"
     inkscape:zoom="0.52188888"
     inkscape:cx="523.09986"
     inkscape:cy="610.28317"
     inkscape:window-width="1862"
     inkscape:window-height="1016"
     inkscape:window-x="0"
     inkscape:window-y="27"
     inkscape:window-maximized="1"
     inkscape:current-layer="g13634" />
  <defs
     id="defs2" />
  <g
     inkscape:groupmode="layer"
     id="g13634"
     inkscape:label="Shape2"
     style="display:inline">
    <g
       id="g13696"
       transform="matrix(1.7525885,0,0,1.7525885,48.565634,-6.7790752)">
      <g
         id="g13618"
         style="display:inline">
        <g
           id="g13607"
           style="display:inline">
          <circle
             style="fill:none;fill-opacity:1;stroke:#50585c;stroke-width:8.46378;stroke-miterlimit:4;stroke-dasharray:none;stroke-opacity:1"
             id="path46"
             cx="248.25742"
             cy="183.86667"
             r="17.725569" />
          <path
             style="fill:#50585c;fill-opacity:1;stroke:none;stroke-width:8.2;stroke-miterlimit:4;stroke-dasharray:none;stroke-opacity:1"
             d="m 227.13072,184.61703 c 0,0 -8.28176,-6.71668 -19.65891,-0.93766 -11.37716,5.77901 -99.16761,52.9102 -99.16761,52.9102 l 2.49911,-69.30166 c 0,0 -1.62426,-10.72946 10.32668,-16.35248 11.95094,-5.62301 41.5464,-21.35541 41.5464,-21.35541 0,0 9.06424,-5.41498 16.65283,-0.52245 7.58859,4.89252 12.3828,9.09402 12.3828,9.09402 l -51.86637,26.8314 c 0,0 -8.01688,4.40327 -7.57428,14.08377 0.44259,9.68049 0.65157,18.86509 0.65157,18.86509 l 76.62921,-38.32325 c 0,0 8.4804,-5.28901 16.10652,-0.39324 7.62613,4.89576 10.49095,7.2868 10.49095,7.2868 l -0.57901,8.82822 z"
             id="path9855" />
        </g>
        <g
           id="g13501"
           transform="rotate(180,264.42851,236.27067)">
          <circle
             style="fill:none;fill-opacity:1;stroke:#50585c;stroke-width:8.46378;stroke-miterlimit:4;stroke-dasharray:none;stroke-opacity:1"
             id="circle13493"
             cx="248.25742"
             cy="183.86667"
             r="17.725569" />
          <path
             style="fill:#50585c;fill-opacity:1;stroke:none;stroke-width:8.2;stroke-miterlimit:4;stroke-dasharray:none;stroke-opacity:1"
             d="m 227.13072,184.61703 c 0,0 -8.28176,-6.71668 -19.65891,-0.93766 -11.37716,5.77901 -99.16761,52.9102 -99.16761,52.9102 l 2.49911,-69.30166 c 0,0 -1.62426,-10.72946 10.32668,-16.35248 11.95094,-5.62301 41.5464,-21.35541 41.5464,-21.35541 0,0 9.06424,-5.41498 16.65283,-0.52245 7.58859,4.89252 12.3828,9.09402 12.3828,9.09402 l -51.86637,26.8314 c 0,0 -8.01688,4.40327 -7.57428,14.08377 0.44259,9.68049 0.65157,18.86509 0.65157,18.86509 l 76.62921,-38.32325 c 0,0 8.4804,-5.28901 16.10652,-0.39324 7.62613,4.89576 10.49095,7.2868 10.49095,7.2868 l -0.57901,8.82822 z"
             id="path13495" />
        </g>
      </g>
      <g
         id="g13648"
         transform="rotate(120,264.42851,236.27067)"
         style="display:inline">
        <g
           id="g13640"
           style="display:inline">
          <circle
             style="fill:none;fill-opacity:1;stroke:#50585c;stroke-width:8.46378;stroke-miterlimit:4;stroke-dasharray:none;stroke-opacity:1"
             id="circle13636"
             cx="248.25742"
             cy="183.86667"
             r="17.725569" />
          <path
             style="fill:#50585c;fill-opacity:1;stroke:none;stroke-width:8.2;stroke-miterlimit:4;stroke-dasharray:none;stroke-opacity:1"
             d="m 227.13072,184.61703 c 0,0 -8.28176,-6.71668 -19.65891,-0.93766 -11.37716,5.77901 -99.16761,52.9102 -99.16761,52.9102 l 2.49911,-69.30166 c 0,0 -1.62426,-10.72946 10.32668,-16.35248 11.95094,-5.62301 41.5464,-21.35541 41.5464,-21.35541 0,0 9.06424,-5.41498 16.65283,-0.52245 7.58859,4.89252 12.3828,9.09402 12.3828,9.09402 l -51.86637,26.8314 c 0,0 -8.01688,4.40327 -7.57428,14.08377 0.44259,9.68049 0.65157,18.86509 0.65157,18.86509 l 76.62921,-38.32325 c 0,0 8.4804,-5.28901 16.10652,-0.39324 7.62613,4.89576 10.49095,7.2868 10.49095,7.2868 l -0.57901,8.82822 z"
             id="path13638" />
        </g>
        <g
           id="g13646"
           transform="rotate(180,264.42851,236.27067)">
          <circle
             style="fill:none;fill-opacity:1;stroke:#50585c;stroke-width:8.46378;stroke-miterlimit:4;stroke-dasharray:none;stroke-opacity:1"
             id="circle13642"
             cx="248.25742"
             cy="183.86667"
             r="17.725569" />
          <path
             style="fill:#50585c;fill-opacity:1;stroke:none;stroke-width:8.2;stroke-miterlimit:4;stroke-dasharray:none;stroke-opacity:1"
             d="m 227.13072,184.61703 c 0,0 -8.28176,-6.71668 -19.65891,-0.93766 -11.37716,5.77901 -99.16761,52.9102 -99.16761,52.9102 l 2.49911,-69.30166 c 0,0 -1.62426,-10.72946 10.32668,-16.35248 11.95094,-5.62301 41.5464,-21.35541 41.5464,-21.35541 0,0 9.06424,-5.41498 16.65283,-0.52245 7.58859,4.89252 12.3828,9.09402 12.3828,9.09402 l -51.86637,26.8314 c 0,0 -8.01688,4.40327 -7.57428,14.08377 0.44259,9.68049 0.65157,18.86509 0.65157,18.86509 l 76.62921,-38.32325 c 0,0 8.4804,-5.28901 16.10652,-0.39324 7.62613,4.89576 10.49095,7.2868 10.49095,7.2868 l -0.57901,8.82822 z"
             id="path13644" />
        </g>
      </g>
      <g
         id="g13632"
         transform="rotate(60,264.42851,236.27067)">
        <g
           id="g13624"
           style="display:inline">
          <circle
             style="fill:none;fill-opacity:1;stroke:#50585c;stroke-width:8.46378;stroke-miterlimit:4;stroke-dasharray:none;stroke-opacity:1"
             id="circle13620"
             cx="248.25742"
             cy="183.86667"
             r="17.725569" />
          <path
             style="fill:#50585c;fill-opacity:1;stroke:none;stroke-width:8.2;stroke-miterlimit:4;stroke-dasharray:none;stroke-opacity:1"
             d="m 227.13072,184.61703 c 0,0 -8.28176,-6.71668 -19.65891,-0.93766 -11.37716,5.77901 -99.16761,52.9102 -99.16761,52.9102 l 2.49911,-69.30166 c 0,0 -1.62426,-10.72946 10.32668,-16.35248 11.95094,-5.62301 41.5464,-21.35541 41.5464,-21.35541 0,0 9.06424,-5.41498 16.65283,-0.52245 7.58859,4.89252 12.3828,9.09402 12.3828,9.09402 l -51.86637,26.8314 c 0,0 -8.01688,4.40327 -7.57428,14.08377 0.44259,9.68049 0.65157,18.86509 0.65157,18.86509 l 76.62921,-38.32325 c 0,0 8.4804,-5.28901 16.10652,-0.39324 7.62613,4.89576 10.49095,7.2868 10.49095,7.2868 l -0.57901,8.82822 z"
             id="path13622" />
        </g>
        <g
           id="g13630"
           transform="rotate(180,264.42851,236.27067)">
          <circle
             style="fill:none;fill-opacity:1;stroke:#50585c;stroke-width:8.46378;stroke-miterlimit:4;stroke-dasharray:none;stroke-opacity:1"
             id="circle13626"
             cx="248.25742"
             cy="183.86667"
             r="17.725569" />
          <path
             style="fill:#50585c;fill-opacity:1;stroke:none;stroke-width:8.2;stroke-miterlimit:4;stroke-dasharray:none;stroke-opacity:1"
             d="m 227.13072,184.61703 c 0,0 -8.28176,-6.71668 -19.65891,-0.93766 -11.37716,5.77901 -99.16761,52.9102 -99.16761,52.9102 l 2.49911,-69.30166 c 0,0 -1.62426,-10.72946 10.32668,-16.35248 11.95094,-5.62301 41.5464,-21.35541 41.5464,-21.35541 0,0 9.06424,-5.41498 16.65283,-0.52245 7.58859,4.89252 12.3828,9.09402 12.3828,9.09402 l -51.86637,26.8314 c 0,0 -8.01688,4.40327 -7.57428,14.08377 0.44259,9.68049 0.65157,18.86509 0.65157,18.86509 l 76.62921,-38.32325 c 0,0 8.4804,-5.28901 16.10652,-0.39324 7.62613,4.89576 10.49095,7.2868 10.49095,7.2868 l -0.57901,8.82822 z"
             id="path13628" />
        </g>
      </g>
    </g>
    <text
       xml:space="preserve"
       style="font-size:160.122px;fill:#50585c;fill-opacity:1;stroke:#50585c;stroke-width:13.2447;stroke-miterlimit:4;stroke-dasharray:none"
       x="100.16277"
       y="892.44708"
       id="text1818"><tspan
         id="tspan1816"
         x="100.16277"
         y="892.44708"
         sodipodi:role="line"
         style="fill:#50585c;fill-opacity:1;stroke-width:13.2447;stroke-miterlimit:4;stroke-dasharray:none">O S C a l c</tspan></text>
  </g>
</svg>
